<svg xmlns="http://www.w3.org/2000/svg" width="1024" height="1024" viewBox="0 0 1024 1024">
<rect x="0" y="0" width="1024" height="1024" fill="#f0ebe0"></rect>
<g stroke-linejoin="round" stroke-linecap="round">
<path d="M 24.58 0 C 96.09 141.31 209.14 141.31 282.62 0" fill="none" stroke="#7a2230" stroke-width="30" transform="translate(512 512) rotate(-90.000) scale(1.18)"></path>
<path d="M 24.58 0 C 96.09 141.31 209.14 141.31 282.62 0 C 209.14 -141.31 96.09 -141.31 24.58 0 Z" fill="#9d2d3f" transform="translate(512 512) rotate(-30.000) scale(1.18)"></path>
<path d="M 24.58 0 C 96.09 141.31 209.14 141.31 282.62 0 C 209.14 -141.31 96.09 -141.31 24.58 0 Z" fill="none" stroke="#7a2230" stroke-width="30" transform="translate(512 512) rotate(30.000) scale(1.18)"></path>
<path d="M 24.58 0 C 96.09 141.31 209.14 141.31 282.62 0 C 209.14 -141.31 96.09 -141.31 24.58 0 Z" fill="#9d2d3f" transform="translate(512 512) rotate(90.000) scale(1.18)"></path>
<path d="M 24.58 0 C 96.09 141.31 209.14 141.31 282.62 0 C 209.14 -141.31 96.09 -141.31 24.58 0 Z" fill="none" stroke="#7a2230" stroke-width="30" transform="translate(512 512) rotate(150.000) scale(1.18)"></path>
<path d="M 24.58 0 C 96.09 141.31 209.14 141.31 282.62 0 C 209.14 -141.31 96.09 -141.31 24.58 0 Z" fill="#9d2d3f" transform="translate(512 512) rotate(210.000) scale(1.18)"></path>
<path d="M 282.62 0 C 209.14 -141.31 96.09 -141.31 24.58 0" fill="none" stroke="#7a2230" stroke-width="30" transform="translate(512 512) rotate(-90.000) scale(1.18)"></path>
</g>
<circle cx="512" cy="512" r="47.13" fill="#f0ebe0"></circle>
</svg>
